<svg width="17" height="17" viewBox="0 0 17 17" fill="none" xmlns="http://www.w3.org/2000/svg">
<path fill-rule="evenodd" clip-rule="evenodd" d="M2.38814 0.933535C2.00237 0.933535 1.6324 1.08678 1.35962 1.35956C1.08684 1.63234 0.933594 2.00231 0.933594 2.38808V15.479C0.933594 15.8648 1.08684 16.2347 1.35962 16.5075C1.6324 16.7803 2.00237 16.9335 2.38814 16.9335H15.479C15.8648 16.9335 16.2348 16.7803 16.5076 16.5075C16.7803 16.2347 16.9336 15.8648 16.9336 15.479V10.3881C16.9336 10.1952 16.857 10.0102 16.7206 9.87382C16.5842 9.73743 16.3992 9.66081 16.2063 9.66081C16.0134 9.66081 15.8285 9.73743 15.6921 9.87382C15.5557 10.0102 15.479 10.1952 15.479 10.3881V15.479H2.38814V2.38808H7.47905C7.67193 2.38808 7.85692 2.31146 7.99331 2.17507C8.1297 2.03868 8.20632 1.85369 8.20632 1.66081C8.20632 1.46792 8.1297 1.28294 7.99331 1.14655C7.85692 1.01016 7.67193 0.933535 7.47905 0.933535H2.38814ZM16.7212 1.1459C16.8565 1.28148 16.9328 1.46494 16.9336 1.65644V6.02444C16.9336 6.21733 16.857 6.40231 16.7206 6.5387C16.5842 6.67509 16.3992 6.75172 16.2063 6.75172C16.0134 6.75172 15.8285 6.67509 15.6921 6.5387C15.5557 6.40231 15.479 6.21733 15.479 6.02444V3.41644L7.99396 10.903C7.92634 10.9706 7.84606 11.0242 7.75772 11.0608C7.66937 11.0974 7.57468 11.1163 7.47905 11.1163C7.38342 11.1163 7.28873 11.0974 7.20038 11.0608C7.11203 11.0242 7.03176 10.9706 6.96414 10.903C6.89652 10.8354 6.84288 10.7551 6.80629 10.6667C6.76969 10.5784 6.75086 10.4837 6.75086 10.3881C6.75086 10.2925 6.76969 10.1978 6.80629 10.1094C6.84288 10.0211 6.89652 9.94079 6.96414 9.87317L14.4507 2.38808H11.8427C11.6498 2.38808 11.4648 2.31146 11.3284 2.17507C11.192 2.03868 11.1154 1.85369 11.1154 1.66081C11.1154 1.46792 11.192 1.28294 11.3284 1.14655C11.4648 1.01016 11.6498 0.933535 11.8427 0.933535H16.2063C16.3019 0.933285 16.3966 0.951916 16.485 0.98836C16.5733 1.0248 16.6536 1.07834 16.7212 1.1459Z" fill="#333333"/>
</svg>
